{
  "accessors": [
    {
      "bufferView": 2,
      "componentType": 5126,
      "count": 65532,
      "max": [
        0.28051328659057617,
        5.4247660636901855,
        75.9083023071289
      ],
      "min": [
        -256.6979675292969,
        -19.01049041748047,
        -74.90947723388672
      ],
      "type": "VEC3"
    },
    {
      "bufferView": 2,
      "byteOffset": 786384,
      "componentType": 5126,
      "count": 65532,
      "max": [
        0.9999909400939941,
        1.0,
        0.9998703598976135
      ],
      "min": [
        -0.9999693632125854,
        -0.9999996423721313,
        -0.9998758435249329
      ],
      "type": "VEC3"
    },
    {
      "bufferView": 1,
      "componentType": 5126,
      "count": 65532,
      "max": [
        0.7448729872703552,
        0.9987789988517761
      ],
      "min": [
        0.0004882809880655259,
        0.0004882809880655259
      ],
      "type": "VEC2"
    },
    {
      "bufferView": 0,
      "componentType": 5125,
      "count": 65532,
      "type": "SCALAR"
    },
    {
      "bufferView": 2,
      "byteOffset": 1572768,
      "componentType": 5126,
      "count": 65532,
      "max": [
        0.30946308374404907,
        5.4247660636901855,
        75.91273498535156
      ],
      "min": [
        -256.6650390625,
        -18.884183883666992,
        -78.23883819580078
      ],
      "type": "VEC3"
    },
    {
      "bufferView": 2,
      "byteOffset": 2359152,
      "componentType": 5126,
      "count": 65532,
      "max": [
        0.9999807476997375,
        1.0,
        0.9998740553855896
      ],
      "min": [
        -0.9999983310699463,
        -0.9999998211860657,
        -0.9999575018882751
      ],
      "type": "VEC3"
    },
    {
      "bufferView": 1,
      "byteOffset": 524256,
      "componentType": 5126,
      "count": 65532,
      "max": [
        0.7416989803314209,
        0.9987789988517761
      ],
      "min": [
        0.0004882809880655259,
        0.0004882809880655259
      ],
      "type": "VEC2"
    },
    {
      "bufferView": 0,
      "byteOffset": 262128,
      "componentType": 5125,
      "count": 65532,
      "type": "SCALAR"
    },
    {
      "bufferView": 2,
      "byteOffset": 3145536,
      "componentType": 5126,
      "count": 65532,
      "max": [
        0.32876715064048767,
        5.307525634765625,
        75.56794738769531
      ],
      "min": [
        -256.6979675292969,
        -18.980695724487305,
        -78.27711486816406
      ],
      "type": "VEC3"
    },
    {
      "bufferView": 2,
      "byteOffset": 3931920,
      "componentType": 5126,
      "count": 65532,
      "max": [
        0.9999931454658508,
        1.0,
        0.9999957084655762
      ],
      "min": [
        -0.9999983310699463,
        -0.9999998211860657,
        -0.9999598860740662
      ],
      "type": "VEC3"
    },
    {
      "bufferView": 1,
      "byteOffset": 1048512,
      "componentType": 5126,
      "count": 65532,
      "max": [
        0.7480469942092896,
        0.9987789988517761
      ],
      "min": [
        0.0004882809880655259,
        0.0004882809880655259
      ],
      "type": "VEC2"
    },
    {
      "bufferView": 0,
      "byteOffset": 524256,
      "componentType": 5125,
      "count": 65532,
      "type": "SCALAR"
    },
    {
      "bufferView": 2,
      "byteOffset": 4718304,
      "componentType": 5126,
      "count": 65532,
      "max": [
        0.3142751157283783,
        5.438004016876221,
        75.7098617553711
      ],
      "min": [
        -256.6642761230469,
        -18.824771881103516,
        -78.05023956298828
      ],
      "type": "VEC3"
    },
    {
      "bufferView": 2,
      "byteOffset": 5504688,
      "componentType": 5126,
      "count": 65532,
      "max": [
        0.9999961256980896,
        1.0,
        0.999943196773529
      ],
      "min": [
        -0.9999693632125854,
        -0.9999998807907104,
        -0.9993944764137268
      ],
      "type": "VEC3"
    },
    {
      "bufferView": 1,
      "byteOffset": 1572768,
      "componentType": 5126,
      "count": 65532,
      "max": [
        0.7441409826278687,
        0.9987789988517761
      ],
      "min": [
        0.0004882809880655259,
        0.0004882809880655259
      ],
      "type": "VEC2"
    },
    {
      "bufferView": 0,
      "byteOffset": 786384,
      "componentType": 5125,
      "count": 65532,
      "type": "SCALAR"
    },
    {
      "bufferView": 2,
      "byteOffset": 6291072,
      "componentType": 5126,
      "count": 12618,
      "max": [
        -38.105587005615234,
        3.591352701187134,
        75.37401580810547
      ],
      "min": [
        -250.0977325439453,
        -17.90509796142578,
        -74.74137878417969
      ],
      "type": "VEC3"
    },
    {
      "bufferView": 2,
      "byteOffset": 6442488,
      "componentType": 5126,
      "count": 12618,
      "max": [
        0.98012375831604,
        1.0,
        0.999943196773529
      ],
      "min": [
        -0.9110719561576843,
        -0.9999960660934448,
        -0.9807301759719849
      ],
      "type": "VEC3"
    },
    {
      "bufferView": 1,
      "byteOffset": 2097024,
      "componentType": 5126,
      "count": 12618,
      "max": [
        0.7321779727935791,
        0.9987789988517761
      ],
      "min": [
        0.0004882809880655259,
        0.0004882809880655259
      ],
      "type": "VEC2"
    },
    {
      "bufferView": 0,
      "byteOffset": 1048512,
      "componentType": 5125,
      "count": 12618,
      "type": "SCALAR"
    }
  ],
  "asset": {
    "extras": {
      "author": "Creaform 3D (https://sketchfab.com/creaform)",
      "license": "CC-BY-4.0 (http://creativecommons.org/licenses/by/4.0/)",
      "source": "https://sketchfab.com/3d-models/ping-pong-paddle-scanned-with-academia-50-43565fda2deb470fbe86e5561a2e1e4e",
      "title": "Ping pong Paddle scanned with ACADEMIA 50"
    },
    "generator": "Sketchfab-12.68.0",
    "version": "2.0"
  },
  "bufferViews": [
    {
      "buffer": 0,
      "byteLength": 1098984,
      "name": "floatBufferViews",
      "target": 34963
    },
    {
      "buffer": 0,
      "byteLength": 2197968,
      "byteOffset": 1098984,
      "byteStride": 8,
      "name": "floatBufferViews",
      "target": 34962
    },
    {
      "buffer": 0,
      "byteLength": 6593904,
      "byteOffset": 3296952,
      "byteStride": 12,
      "name": "floatBufferViews",
      "target": 34962
    }
  ],
  "buffers": [
    {
      "byteLength": 9890856,
      "uri": "scene.bin"
    }
  ],
  "extensionsRequired": [
    "KHR_materials_pbrSpecularGlossiness"
  ],
  "extensionsUsed": [
    "KHR_materials_pbrSpecularGlossiness"
  ],
  "images": [
    {
      "uri": "textures/material_diffuse.jpeg"
    },
    {
      "uri": "textures/material_specularGlossiness.png"
    }
  ],
  "materials": [
    {
      "doubleSided": true,
      "extensions": {
        "KHR_materials_pbrSpecularGlossiness": {
          "diffuseFactor": [
            1.0,
            1.0,
            1.0,
            1.0
          ],
          "diffuseTexture": {
            "index": 0
          },
          "glossinessFactor": 0.7395621509086795,
          "specularFactor": [
            1.0,
            1.0,
            1.0
          ],
          "specularGlossinessTexture": {
            "index": 1
          }
        }
      },
      "name": "material"
    }
  ],
  "meshes": [
    {
      "name": "Object_0",
      "primitives": [
        {
          "attributes": {
            "NORMAL": 1,
            "POSITION": 0,
            "TEXCOORD_0": 2
          },
          "indices": 3,
          "material": 0,
          "mode": 4
        }
      ]
    },
    {
      "name": "Object_1",
      "primitives": [
        {
          "attributes": {
            "NORMAL": 5,
            "POSITION": 4,
            "TEXCOORD_0": 6
          },
          "indices": 7,
          "material": 0,
          "mode": 4
        }
      ]
    },
    {
      "name": "Object_2",
      "primitives": [
        {
          "attributes": {
            "NORMAL": 9,
            "POSITION": 8,
            "TEXCOORD_0": 10
          },
          "indices": 11,
          "material": 0,
          "mode": 4
        }
      ]
    },
    {
      "name": "Object_3",
      "primitives": [
        {
          "attributes": {
            "NORMAL": 13,
            "POSITION": 12,
            "TEXCOORD_0": 14
          },
          "indices": 15,
          "material": 0,
          "mode": 4
        }
      ]
    },
    {
      "name": "Object_4",
      "primitives": [
        {
          "attributes": {
            "NORMAL": 17,
            "POSITION": 16,
            "TEXCOORD_0": 18
          },
          "indices": 19,
          "material": 0,
          "mode": 4
        }
      ]
    }
  ],
  "nodes": [
    {
      "children": [
        1
      ],
      "matrix": [
        0.9146616458892822,
        -0.40422025322914124,
        -1.5289925403274364e-16,
        0.0,
        8.789568249429269e-17,
        5.771459097650964e-16,
        -1.0,
        0.0,
        0.40422025322914124,
        0.9146616458892822,
        5.634224407723599e-16,
        0.0,
        -10.461137771606445,
        -51.91574478149414,
        -1.952121681669675e-14,
        1.0
      ],
      "name": "Sketchfab_model"
    },
    {
      "children": [
        2,
        3,
        4,
        5,
        6
      ],
      "name": "pingpong pad.obj.cleaner.materialmerger.gles"
    },
    {
      "mesh": 0,
      "name": "Object_2"
    },
    {
      "mesh": 1,
      "name": "Object_3"
    },
    {
      "mesh": 2,
      "name": "Object_4"
    },
    {
      "mesh": 3,
      "name": "Object_5"
    },
    {
      "mesh": 4,
      "name": "Object_6"
    }
  ],
  "samplers": [
    {
      "magFilter": 9729,
      "minFilter": 9987,
      "wrapS": 10497,
      "wrapT": 10497
    }
  ],
  "scene": 0,
  "scenes": [
    {
      "name": "Sketchfab_Scene",
      "nodes": [
        0
      ]
    }
  ],
  "textures": [
    {
      "sampler": 0,
      "source": 0
    },
    {
      "sampler": 0,
      "source": 1
    }
  ]
}
